<?xml version="1.0" standalone="no"?>
<!DOCTYPE svg PUBLIC "-//W3C//DTD SVG 20010904//EN"
 "http://www.w3.org/TR/2001/REC-SVG-20010904/DTD/svg10.dtd">
<svg version="1.0" xmlns="http://www.w3.org/2000/svg"
 width="1000.000000pt" height="900.000000pt" viewBox="0 0 1000.000000 900.000000"
 preserveAspectRatio="xMidYMid meet">

<g transform="translate(0.000000,900.000000) scale(0.100000,-0.100000)"
fill="#000000" stroke="none">
<path d="M4640 8919 c-154 -16 -334 -39 -390 -50 -30 -6 -80 -15 -110 -20
-117 -22 -307 -69 -400 -99 -151 -47 -198 -63 -215 -70 -11 -5 -65 -25 -120
-45 -160 -60 -202 -78 -396 -175 -86 -43 -175 -90 -197 -104 -23 -14 -44 -26
-46 -26 -11 0 -212 -131 -341 -223 -220 -156 -328 -249 -565 -487 -168 -168
-198 -200 -307 -331 -121 -146 -308 -420 -423 -621 -50 -86 -240 -477 -240
-492 0 -3 -9 -25 -19 -49 -18 -40 -38 -95 -95 -254 -60 -172 -106 -353 -156
-615 -11 -61 -34 -234 -51 -393 -7 -74 -9 -217 -6 -435 6 -333 12 -414 42
-605 30 -190 35 -217 76 -385 4 -19 12 -53 18 -75 5 -22 17 -65 26 -95 9 -30
20 -68 25 -85 16 -58 58 -182 78 -231 11 -27 39 -96 62 -154 48 -120 187 -409
226 -471 14 -22 37 -62 51 -87 78 -140 342 -505 479 -662 56 -64 326 -336 399
-400 139 -125 266 -223 435 -338 103 -71 277 -182 284 -182 2 0 41 -22 87 -48
227 -130 511 -254 814 -353 98 -33 326 -93 405 -109 25 -4 83 -16 130 -25 93
-18 134 -24 350 -51 263 -33 808 -25 1075 16 177 27 265 41 305 50 85 18 265
61 290 70 14 4 79 25 145 46 132 41 350 124 460 174 174 79 389 191 447 231
14 11 29 19 32 19 12 0 293 188 382 256 166 126 319 258 465 404 205 204 314
330 464 533 28 38 59 81 71 95 81 106 244 384 343 588 160 327 307 764 361
1079 59 339 74 509 74 845 0 304 -3 350 -46 650 -30 211 -35 237 -79 420 -4
19 -12 53 -17 75 -24 107 -118 387 -173 512 -11 24 -19 46 -19 49 0 17 -183
392 -238 489 -312 546 -782 1071 -1272 1421 -227 162 -411 273 -645 388 -107
53 -223 106 -231 106 -3 0 -22 7 -42 16 -21 9 -46 20 -57 24 -11 4 -33 13 -50
20 -82 33 -356 118 -480 149 -22 5 -60 15 -84 21 -24 6 -65 15 -90 20 -25 4
-84 15 -131 23 -127 23 -234 39 -340 49 -136 12 -729 18 -830 7z m563 -319
c208 -10 343 -26 572 -66 184 -33 469 -106 560 -144 11 -4 43 -15 70 -25 28
-9 59 -20 70 -25 11 -4 79 -32 150 -61 142 -57 263 -118 481 -240 94 -52 391
-252 414 -279 3 -3 37 -30 75 -60 207 -160 446 -396 630 -625 108 -135 292
-397 318 -455 7 -15 19 -35 48 -80 23 -35 169 -323 198 -390 12 -30 29 -68 36
-85 20 -47 82 -217 94 -255 6 -19 21 -69 34 -110 36 -113 44 -141 87 -320 53
-219 82 -456 95 -780 7 -169 -6 -498 -26 -625 -43 -281 -61 -367 -133 -640
-16 -58 -41 -139 -56 -180 -43 -115 -86 -228 -103 -265 -70 -158 -128 -279
-177 -365 -18 -33 -41 -75 -52 -93 -78 -139 -216 -338 -367 -527 -116 -145
-429 -460 -566 -570 -55 -44 -102 -82 -105 -85 -7 -7 -120 -92 -147 -110 -12
-8 -62 -42 -110 -76 -131 -90 -278 -174 -458 -263 -165 -81 -254 -121 -269
-121 -6 0 -16 -4 -21 -8 -15 -13 -252 -99 -335 -122 -25 -7 -65 -18 -90 -26
-85 -24 -284 -67 -435 -93 -226 -40 -301 -45 -670 -44 -419 0 -510 8 -825 75
-212 45 -288 66 -480 129 -353 115 -760 321 -1075 545 -369 263 -736 625 -986
974 -76 105 -149 216 -149 225 0 3 -15 28 -34 57 -75 119 -178 322 -261 513
-54 126 -114 293 -150 420 -9 33 -21 71 -25 85 -13 39 -58 236 -75 330 -53
290 -60 371 -60 745 0 321 6 432 35 605 25 144 42 238 50 270 5 19 21 85 36
145 27 113 116 396 134 427 6 10 10 22 10 28 0 6 11 33 25 62 14 28 25 55 25
59 0 19 137 300 204 417 20 35 36 66 36 68 0 18 221 343 304 447 189 238 413
470 606 627 30 25 60 50 67 57 60 55 386 281 485 336 25 14 63 36 85 50 35 22
327 166 381 188 30 12 60 25 102 42 67 29 257 95 335 117 403 116 707 162
1165 178 19 1 119 -3 223 -8z"/>
<path d="M6015 7850 c-77 -11 -194 -35 -265 -55 -30 -9 -67 -19 -83 -22 -15
-3 -30 -9 -33 -14 -3 -5 -12 -9 -20 -9 -26 0 -226 -101 -290 -147 -276 -195
-439 -488 -469 -843 -3 -41 -8 -91 -11 -110 l-5 -36 59 -12 c142 -29 331 -10
547 55 26 8 208 103 215 112 3 4 28 23 56 43 176 128 316 373 373 653 17 84
33 267 30 330 -5 69 -4 68 -104 55z"/>
<path d="M4330 7420 c-14 -4 -51 -8 -82 -9 -64 -1 -64 0 -97 -96 -20 -56 -20
-95 -1 -95 5 0 49 -33 97 -73 225 -188 380 -406 460 -647 44 -136 41 -131 92
-128 l46 3 -3 65 c-4 84 -28 217 -54 305 -24 79 -93 254 -118 300 -9 17 -32
57 -50 90 -18 33 -41 72 -51 87 -11 14 -19 29 -19 32 0 7 -98 146 -116 163
-14 14 -65 16 -104 3z"/>
<path d="M6802 7014 c-56 -23 -193 -128 -267 -203 -163 -167 -300 -419 -375
-691 -7 -25 -16 -56 -20 -70 -5 -14 -16 -52 -25 -85 -100 -353 -246 -505 -545
-571 -79 -17 -378 -19 -525 -3 -157 16 -335 39 -390 49 -27 5 -79 14 -115 21
-221 39 -543 138 -750 231 -104 47 -219 117 -299 181 -44 35 -77 55 -82 50
-15 -15 43 -119 115 -209 177 -221 447 -375 866 -494 25 -7 68 -19 95 -27 109
-30 225 -70 290 -98 172 -76 250 -127 356 -234 158 -159 219 -294 219 -487 0
-126 -20 -206 -86 -336 -33 -65 -123 -215 -145 -242 -14 -17 -159 -226 -186
-269 -106 -168 -179 -335 -237 -546 -14 -51 -28 -96 -31 -100 -9 -8 -109 46
-133 72 -19 21 -20 25 -7 77 19 78 51 171 100 290 16 39 93 193 136 270 16 30
131 203 140 210 20 18 183 279 212 340 44 92 71 208 62 270 -30 209 -179 380
-438 504 -105 50 -168 73 -357 126 -163 47 -293 89 -380 125 -354 146 -625
395 -721 660 -23 64 -29 86 -43 145 -17 73 -32 250 -21 250 4 0 30 -19 58 -43
46 -38 202 -147 211 -147 2 0 41 -22 87 -48 120 -68 246 -128 339 -162 19 -6
44 -16 55 -20 76 -30 308 -95 430 -119 33 -7 89 -19 125 -26 171 -35 267 -51
385 -65 50 -6 98 -13 108 -16 28 -9 20 11 -38 88 -30 40 -69 107 -87 148 -29
69 -32 85 -35 205 -3 137 -10 155 -55 155 -19 0 -97 24 -143 45 -16 7 -61 28
-100 45 -200 91 -355 143 -575 190 -141 30 -450 30 -575 -1 -63 -15 -215 -60
-235 -70 -8 -3 -44 -19 -80 -35 -36 -16 -82 -39 -102 -51 -21 -13 -42 -23 -48
-23 -5 0 -10 -4 -10 -10 0 -5 -5 -10 -11 -10 -23 0 -200 -143 -281 -228 -193
-203 -328 -468 -397 -777 -53 -242 -54 -653 -1 -920 29 -147 43 -213 50 -240
5 -16 13 -48 19 -70 16 -62 81 -266 96 -300 7 -16 19 -46 26 -65 100 -270 351
-686 542 -899 52 -58 340 -346 387 -387 91 -78 212 -163 280 -195 71 -33 94
-41 196 -68 90 -24 287 -8 434 34 30 9 69 20 85 25 74 20 252 82 270 94 13 9
25 35 34 77 43 195 146 447 271 667 42 74 132 214 147 230 7 8 18 23 24 34 11
20 176 237 189 248 3 3 32 37 64 75 32 39 75 88 95 110 20 22 68 76 106 120
39 44 72 82 75 85 19 19 118 140 176 215 211 273 339 562 394 885 12 68 21
161 39 370 25 282 39 383 98 660 18 86 86 292 124 377 10 24 19 45 19 49 0 7
60 127 101 202 44 78 132 204 202 285 32 37 57 72 55 77 -2 4 -18 2 -36 -6z"/>
<path d="M5990 6478 c-25 -5 -78 -16 -117 -24 -40 -9 -73 -19 -73 -23 0 -4 12
-21 26 -37 55 -62 102 -131 118 -174 21 -53 35 -72 47 -64 5 3 9 15 9 27 0 25
33 133 43 143 4 4 7 13 7 21 0 7 11 37 25 65 14 29 23 58 21 65 -6 15 -40 15
-106 1z"/>
<path d="M6637 6353 c-135 -298 -183 -532 -237 -1163 -12 -139 -32 -288 -52
-375 -14 -64 -56 -214 -68 -240 -4 -11 -23 -56 -40 -100 -83 -206 -280 -509
-466 -718 -16 -18 -54 -61 -84 -97 -30 -36 -67 -78 -81 -95 -53 -61 -155 -182
-195 -230 -43 -53 -234 -322 -234 -330 0 -3 -15 -26 -34 -52 -82 -117 -229
-414 -270 -548 -87 -285 -125 -611 -96 -818 12 -84 38 -211 50 -247 4 -14 16
-52 26 -85 9 -33 21 -67 25 -75 4 -8 15 -32 24 -53 9 -21 19 -36 22 -33 3 3 6
99 8 213 1 114 7 240 14 278 7 39 19 108 27 155 8 47 19 101 24 120 5 19 16
64 25 100 30 118 111 377 140 445 34 81 66 168 91 245 15 47 30 94 34 105 5
11 13 34 20 51 26 70 136 153 203 154 75 0 127 -67 107 -139 -14 -53 -91 -199
-166 -317 -78 -122 -148 -255 -138 -263 5 -4 34 -13 64 -21 30 -7 89 -24 130
-37 163 -51 162 -50 295 -85 66 -17 266 -17 330 0 171 46 301 119 475 267 19
16 96 90 171 165 355 354 585 701 757 1140 108 277 151 449 194 775 17 127 17
531 0 645 -46 309 -125 538 -256 734 -159 237 -441 460 -714 562 -90 34 -94
33 -125 -33z"/>
<path d="M5350 6371 c-95 -20 -212 -107 -252 -186 -41 -80 -43 -90 -43 -189 1
-91 4 -107 30 -161 40 -80 126 -165 212 -206 60 -30 78 -33 153 -34 75 0 92 4
145 30 73 36 150 111 190 185 28 52 30 62 29 165 0 103 -2 114 -32 177 -39 81
-112 156 -188 192 -61 29 -177 42 -244 27z"/>
<path d="M2498 3 c1376 -2 3628 -2 5005 0 1376 1 250 2 -2503 2 -2753 0 -3879
-1 -2502 -2z"/>
</g>
</svg>
