<?xml version="1.0" standalone="no"?>
<!DOCTYPE svg PUBLIC "-//W3C//DTD SVG 20010904//EN"
 "http://www.w3.org/TR/2001/REC-SVG-20010904/DTD/svg10.dtd">
<svg version="1.0" xmlns="http://www.w3.org/2000/svg"
 width="1024.000000pt" height="1024.000000pt" viewBox="0 0 1024.000000 1024.000000"
 preserveAspectRatio="xMidYMid meet">

<g transform="translate(0.000000,1024.000000) scale(0.100000,-0.100000)"
fill="#000000" stroke="none">
<path d="M4920 7119 c-339 -39 -656 -166 -916 -367 -390 -301 -647 -743 -709
-1219 -144 -1098 716 -2073 1830 -2073 671 0 1274 356 1613 952 87 154 163
367 197 555 23 121 31 393 16 523 -82 709 -556 1306 -1222 1538 -243 85 -555
120 -809 91z m545 -159 c756 -162 1300 -784 1355 -1550 38 -526 -173 -1041
-567 -1385 -290 -254 -627 -396 -1008 -425 -766 -58 -1491 421 -1738 1150 -69
203 -82 286 -81 545 0 201 3 243 22 330 77 347 224 619 465 863 260 264 585
430 952 487 137 21 470 13 600 -15z"/>
<path d="M5518 6679 c-260 -40 -426 -193 -459 -422 -6 -43 -9 -81 -5 -84 13
-13 109 -15 168 -3 207 40 332 194 354 434 4 40 3 75 -2 78 -5 2 -30 1 -56 -3z"/>
<path d="M4812 6503 c-24 -3 -36 -11 -43 -29 -15 -40 -11 -46 47 -93 71 -57
138 -151 171 -240 19 -53 31 -71 44 -71 24 0 25 39 4 126 -28 120 -136 316
-172 312 -10 0 -33 -3 -51 -5z"/>
<path d="M5817 6309 c-102 -67 -172 -180 -232 -374 -55 -177 -96 -227 -214
-262 -94 -27 -345 -6 -547 46 -141 36 -282 100 -341 154 -34 30 -30 0 5 -49
77 -105 187 -172 369 -225 148 -43 242 -88 302 -144 104 -97 129 -212 72 -331
-15 -33 -62 -111 -104 -172 -66 -99 -137 -244 -137 -284 -1 -33 -16 -40 -48
-24 l-31 16 15 52 c25 85 77 188 158 310 113 170 125 217 80 306 -46 92 -120
138 -319 197 -161 49 -255 96 -332 168 -80 75 -123 158 -131 253 l-5 67 39
-31 c143 -114 332 -181 676 -237 l37 -6 -34 57 c-34 56 -52 126 -42 163 4 15
-6 23 -52 39 -31 11 -84 32 -119 47 -151 63 -329 83 -455 50 -211 -55 -382
-229 -442 -450 -22 -80 -30 -280 -16 -375 41 -267 140 -491 307 -689 88 -106
210 -213 284 -249 76 -38 178 -36 308 4 l94 29 37 111 c58 176 144 309 346
539 205 234 251 336 280 618 8 78 20 174 26 212 25 158 100 337 184 439 25 31
41 56 37 56 -5 0 -30 -14 -55 -31z"/>
<path d="M5497 6110 c-50 -9 -54 -16 -30 -43 11 -12 29 -38 38 -56 l18 -35 17
55 c10 29 21 62 25 72 8 19 -2 20 -68 7z"/>
<path d="M5781 6038 c-38 -92 -61 -204 -81 -396 -24 -224 -37 -278 -94 -397
-49 -103 -91 -161 -235 -330 -178 -208 -280 -380 -321 -539 -40 -159 -36 -308
13 -433 l22 -58 6 120 c9 168 28 246 123 510 37 105 68 145 110 145 29 0 46
-18 46 -50 0 -14 -30 -74 -65 -135 l-65 -109 112 -34 c191 -56 290 -36 431 88
316 278 479 640 464 1030 -6 156 -22 223 -77 336 -49 100 -149 200 -255 255
-110 58 -109 58 -134 -3z"/>
<path d="M5212 6050 c-47 -29 -72 -76 -72 -136 0 -128 147 -208 249 -135 90
64 85 205 -9 268 -43 30 -121 31 -168 3z"/>
</g>
</svg>
